<?xml version="1.0" encoding="UTF-8"?>
<!DOCTYPE svg PUBLIC "-//W3C//DTD SVG 1.1//EN" "http://www.w3.org/Graphics/SVG/1.1/DTD/svg11.dtd">
<!-- Creator: CorelDRAW 2018 (64-Bit Оценочная версия) -->
<svg xmlns="http://www.w3.org/2000/svg" xml:space="preserve" width="846.667mm" height="254mm" version="1.1" style="shape-rendering:geometricPrecision; text-rendering:geometricPrecision; image-rendering:optimizeQuality; fill-rule:evenodd; clip-rule:evenodd"
viewBox="0 0 84666.66 25400"
 xmlns:xlink="http://www.w3.org/1999/xlink">
 <defs>
  <style type="text/css">
   <![CDATA[
    .fil0 {fill:#0063AB;fill-rule:nonzero}
   ]]>
  </style>
 </defs>
 <g id="Слой_x0020_1">
  <metadata id="CorelCorpID_0Corel-Layer"/>
  <g id="_1395634960">
   <path class="fil0" d="M10705.91 5660.04c189.68,0 1108.29,586.89 2760.43,1763.72 1030.56,743.52 2061.13,1487.12 3091.75,2233.76 130.25,89.13 194.21,187.4 194.21,294.97l0 1809.74c0,82.96 -63.96,169.04 -194.21,252 -27.43,18.43 -1026.04,731.25 -2998.1,2141.58 -1693.26,1207.53 -2616.41,1809.73 -2771.82,1809.73 -354.21,0 -884.33,-15.31 -1590.43,-49.13 -708.37,-33.83 -1238.55,-49.14 -1590.44,-49.14 -164.52,0 -246.79,-70.7 -246.79,-215.13 0,-113.66 6.86,-282.63 18.3,-500.81 13.71,-218.18 20.57,-384.1 20.57,-497.76 0,-110.62 -6.86,-273.49 -20.57,-497.76 -11.44,-221.23 -18.3,-387.15 -18.3,-494.72 0,-138.26 41.13,-205.84 125.67,-205.84 363.33,0 907.22,30.7 1633.88,95.23 728.93,61.48 1275.09,92.18 1640.69,92.18 303.9,0 1656.72,-927.88 4056.08,-2789.88 -623.83,-491.66 -1341.37,-1026.29 -2148.03,-1600.84 -1169.94,-835.78 -1857.79,-1250.58 -2061.13,-1250.58 -349.62,0 -868.36,12.34 -1560.75,43.04 -692.39,30.71 -1208.8,46.09 -1553.89,46.09 -89.12,0 -132.52,-67.57 -132.52,-199.74 0,-113.66 6.86,-279.58 18.3,-503.86 13.71,-221.22 20.57,-387.15 20.57,-494.71 0,-107.57 -6.86,-270.37 -20.57,-491.59 -11.44,-218.18 -18.3,-381.05 -18.3,-488.55 0,-132.17 41.13,-208.96 125.67,-224.34 -29.69,6.17 54.84,9.21 255.96,9.21 329.06,0 822.64,-6.09 1483.02,-18.43 658.11,-12.27 1151.69,-18.44 1480.75,-18.44z"/>
   <path class="fil0" d="M8749.88 19806.32c-189.69,0 -1108.3,-586.89 -2760.43,-1763.72 -1030.57,-743.52 -2061.13,-1487.12 -3091.75,-2233.76 -130.25,-89.13 -194.22,-187.4 -194.22,-294.97l0 -1809.74c0,-82.96 63.97,-169.04 194.22,-252 27.42,-18.43 1026.03,-731.25 2998.1,-2141.58 1693.26,-1207.53 2616.41,-1809.73 2771.81,-1809.73 354.21,0 884.34,15.31 1590.44,49.13 708.36,33.83 1238.54,49.14 1590.43,49.14 164.53,0 246.79,70.7 246.79,215.13 0,113.66 -6.85,282.63 -18.3,500.81 -13.71,218.18 -20.56,384.1 -20.56,497.76 0,110.62 6.85,273.49 20.56,497.76 11.45,221.23 18.3,387.15 18.3,494.72 0,138.26 -41.13,205.84 -125.66,205.84 -363.33,0 -907.22,-30.71 -1633.89,-95.23 -728.93,-61.48 -1275.09,-92.18 -1640.69,-92.18 -303.9,0 -1656.72,927.88 -4056.08,2789.87 623.83,491.67 1341.38,1026.3 2148.04,1600.85 1169.94,835.77 1857.79,1250.58 2061.13,1250.58 349.62,0 868.36,-12.34 1560.74,-43.05 692.39,-30.7 1208.81,-46.08 1553.89,-46.08 89.12,0 132.52,67.57 132.52,199.74 0,113.66 -6.85,279.58 -18.3,503.86 -13.71,221.22 -20.56,387.14 -20.56,494.71 0,107.57 6.85,270.36 20.56,491.59 11.45,218.18 18.3,381.05 18.3,488.54 0,132.18 -41.13,208.97 -125.66,224.35 29.69,-6.17 -54.84,-9.21 -255.97,-9.21 -329.05,0 -822.64,6.09 -1483.02,18.43 -658.11,12.27 -1151.69,18.44 -1480.74,18.44z"/>
  </g>
 </g>
</svg>
