<?xml version="1.0" encoding="UTF-8"?>
<!DOCTYPE svg PUBLIC "-//W3C//DTD SVG 1.1//EN" "http://www.w3.org/Graphics/SVG/1.1/DTD/svg11.dtd">
<!-- Creator: CorelDRAW 2018 (64-Bit Оценочная версия) -->
<svg xmlns="http://www.w3.org/2000/svg" xml:space="preserve" width="846.667mm" height="254mm" version="1.1" style="shape-rendering:geometricPrecision; text-rendering:geometricPrecision; image-rendering:optimizeQuality; fill-rule:evenodd; clip-rule:evenodd"
viewBox="0 0 84666.66 25400"
 xmlns:xlink="http://www.w3.org/1999/xlink">
 <defs>
  <style type="text/css">
   <![CDATA[
    .fil0 {fill:#0063AB;fill-rule:nonzero}
   ]]>
  </style>
 </defs>
 <g id="Слой_x0020_1">
  <metadata id="CorelCorpID_0Corel-Layer"/>
  <g id="_1395634960">
   <path class="fil0" d="M10705.91 5660.04c189.68,0 1108.29,586.89 2760.43,1763.72 1030.56,743.52 2061.13,1487.12 3091.75,2233.76 130.25,89.13 194.21,187.4 194.21,294.97l0 1809.74c0,82.96 -63.96,169.04 -194.21,252 -27.43,18.43 -1026.04,731.25 -2998.1,2141.58 -1693.26,1207.53 -2616.41,1809.73 -2771.82,1809.73 -354.21,0 -884.33,-15.31 -1590.43,-49.13 -708.37,-33.83 -1238.55,-49.14 -1590.44,-49.14 -164.52,0 -246.79,-70.7 -246.79,-215.13 0,-113.66 6.86,-282.63 18.3,-500.81 13.71,-218.18 20.57,-384.1 20.57,-497.76 0,-110.62 -6.86,-273.49 -20.57,-497.76 -11.44,-221.23 -18.3,-387.15 -18.3,-494.72 0,-138.26 41.13,-205.84 125.67,-205.84 363.33,0 907.22,30.7 1633.88,95.23 728.93,61.48 1275.09,92.18 1640.69,92.18 303.9,0 1656.72,-927.88 4056.08,-2789.88 -623.83,-491.66 -1341.37,-1026.29 -2148.03,-1600.84 -1169.94,-835.78 -1857.79,-1250.58 -2061.13,-1250.58 -349.62,0 -868.36,12.34 -1560.75,43.04 -692.39,30.71 -1208.8,46.09 -1553.89,46.09 -89.12,0 -132.52,-67.57 -132.52,-199.74 0,-113.66 6.86,-279.58 18.3,-503.86 13.71,-221.22 20.57,-387.15 20.57,-494.71 0,-107.57 -6.86,-270.37 -20.57,-491.59 -11.44,-218.18 -18.3,-381.05 -18.3,-488.55 0,-132.17 41.13,-208.96 125.67,-224.34 -29.69,6.17 54.84,9.21 255.96,9.21 329.06,0 822.64,-6.09 1483.02,-18.43 658.11,-12.27 1151.69,-18.44 1480.75,-18.44z"/>
   <path class="fil0" d="M8749.88 19806.32c-189.69,0 -1108.3,-586.89 -2760.43,-1763.72 -1030.57,-743.52 -2061.13,-1487.12 -3091.75,-2233.76 -130.25,-89.13 -194.22,-187.4 -194.22,-294.97l0 -1809.74c0,-82.96 63.97,-169.04 194.22,-252 27.42,-18.43 1026.03,-731.25 2998.1,-2141.58 1693.26,-1207.53 2616.41,-1809.73 2771.81,-1809.73 354.21,0 884.34,15.31 1590.44,49.13 708.36,33.83 1238.54,49.14 1590.43,49.14 164.53,0 246.79,70.7 246.79,215.13 0,113.66 -6.85,282.63 -18.3,500.81 -13.71,218.18 -20.56,384.1 -20.56,497.76 0,110.62 6.85,273.49 20.56,497.76 11.45,221.23 18.3,387.15 18.3,494.72 0,138.26 -41.13,205.84 -125.66,205.84 -363.33,0 -907.22,-30.71 -1633.89,-95.23 -728.93,-61.48 -1275.09,-92.18 -1640.69,-92.18 -303.9,0 -1656.72,927.88 -4056.08,2789.87 623.83,491.67 1341.38,1026.3 2148.04,1600.85 1169.94,835.77 1857.79,1250.58 2061.13,1250.58 349.62,0 868.36,-12.34 1560.74,-43.05 692.39,-30.7 1208.81,-46.08 1553.89,-46.08 89.12,0 132.52,67.57 132.52,199.74 0,113.66 -6.85,279.58 -18.3,503.86 -13.71,221.22 -20.56,387.14 -20.56,494.71 0,107.57 6.85,270.36 20.56,491.59 11.45,218.18 18.3,381.05 18.3,488.54 0,132.18 -41.13,208.97 -125.66,224.35 29.69,-6.17 -54.84,-9.21 -255.97,-9.21 -329.05,0 -822.64,6.09 -1483.02,18.43 -658.11,12.27 -1151.69,18.44 -1480.74,18.44z"/>
   <path class="fil0" d="M70860.14 9483.11l0 3146.93c0,382.28 131.59,705.06 396.96,970.5 261.08,261.15 590.17,392.82 982.84,392.82l4510.77 0c169.81,0 316.23,59.44 441.5,180.49 127.3,120.99 193.14,269.66 193.14,448.05l-12.72 838.68c0,178.39 -61.54,329.17 -184.63,452.41 -121.06,120.99 -267.48,182.61 -437.29,182.61l-5056.33 0c-178.31,0 -367.23,-61.62 -566.77,-186.9 -91.26,-61.54 -184.71,-138.06 -280.19,-229.4l422.39 1679.7 7476.22 0c382.07,0 706.87,-131.67 972.24,-392.82 261.07,-265.44 390.48,-588.21 390.48,-970.43l0 -3365.71c0,-371.61 -129.41,-694.3 -390.48,-964.03 -265.37,-273.87 -590.17,-409.83 -972.24,-409.83l-4521.38 0c-178.31,0 -326.91,-59.44 -447.89,-180.42 -116.77,-116.84 -174.1,-263.33 -174.1,-441.72l0 -641.26c0,-178.32 57.33,-324.88 174.1,-441.73 120.98,-121.06 269.58,-180.49 447.89,-180.49l5056.33 0c178.24,0 365.06,63.72 560.3,193.21 95.55,57.41 189,131.74 280.26,223.08l-416.06 -1679.7 -7465.54 0c-375.74,0 -700.47,137.99 -970.13,411.93 -273.79,269.66 -409.67,590.32 -409.67,964.03z"/>
   <path class="fil0" d="M22814.51 8711.47l-4067.09 7986.33c-178.24,244.15 -356.63,456.48 -534.94,634.87l1834.01 0 12.79 -435.33 1069.89 -2089.45 4217.79 0 857.57 2064.02c17,46.72 25.51,84.94 25.51,118.87 0,40.33 -8.51,78.55 -25.51,112.56 -46.72,78.55 -114.59,154.99 -205.93,229.33l3564.05 0c-116.77,-121.06 -205.85,-220.83 -267.47,-305.77 -82.77,-110.45 -150.71,-225.12 -205.86,-341.89l-3574.65 -8602.09 -2967.56 0 267.4 628.55zm634.79 1535.31l1373.33 3304.02 -3027 0 1653.67 -3304.02z"/>
   <path class="fil0" d="M31344.37 17348.62l-3003.59 -8827.21c-25.51,-87.05 -53.05,-154.99 -86.98,-203.82 -46.72,-50.93 -133.77,-123.16 -267.47,-218.71l3245.56 0 0 422.53 2203.43 6444.71 2405 -6457.42 0 -409.82 1810.69 0c-91.26,57.33 -159.28,110.45 -205.93,154.99 -74.26,74.33 -127.38,159.28 -161.31,254.83l-3413.34 8839.92 -2526.06 0z"/>
   <path class="fil0" d="M38429.88 8110.09c116.69,0 218.64,76.44 305.62,231.43 74.26,161.39 110.37,365.21 110.37,609.43l0 7570.12c0,229.33 -36.11,424.65 -110.37,586.03 -86.98,169.89 -188.93,254.83 -305.62,254.83l7985.58 0 422.47 -1679.69c-104.06,91.33 -184.71,157.24 -242.04,197.57 -216.47,146.49 -418.1,218.72 -602.89,218.72l-4404.61 0 0 -2737.18 3782.69 0c235.65,0 435.18,38.23 596.56,112.56 161.24,87.05 241.9,191.11 241.9,310.06l0 -2102.24c0,114.66 -76.37,212.32 -229.26,290.87 -161.31,82.84 -365.05,125.27 -609.2,125.27l-3782.69 0 0 -2724.38 4404.61 0c135.88,0 292.98,42.51 471.29,125.27 178.32,93.52 303.52,191.18 373.64,291.02l-422.47 -1679.69 -7985.58 0z"/>
   <path class="fil0" d="M55787.99 8108.66l-6183.47 0c-377.85,0 -700.47,135.88 -970.05,409.82 -273.79,269.65 -409.75,592.43 -409.75,964.03l0 6512.64c0,382.21 131.67,704.99 397.04,970.43 261.07,261.15 590.09,392.82 982.76,392.82l6196.19 0 422.46 -1679.7c-95.47,91.34 -176.2,157.25 -242.04,199.68 -216.46,144.38 -415.99,216.61 -602.81,216.61l-3791.19 0c-178.24,0 -326.91,-57.33 -447.89,-174.1 -116.77,-118.95 -174.03,-274.02 -174.03,-460.91l0 -5467.8c0,-178.32 57.26,-324.88 174.03,-441.73 120.98,-118.88 269.65,-180.5 447.89,-180.5l3778.48 0c135.8,0 295.08,42.51 471.21,125.28 178.32,95.62 303.59,193.36 373.56,293.13l-422.39 -1679.7z"/>
   <path class="fil0" d="M67000.86 8934.47l0 7572.23c0,227.22 -36.12,422.54 -110.38,583.92 -86.97,169.89 -188.92,254.84 -305.62,254.84l3576.77 0c-116.77,0 -214.43,-80.66 -292.98,-242.05 -82.76,-155.06 -123.17,-352.49 -123.17,-596.71l0 -7572.23c0,-227.22 40.41,-426.82 123.17,-596.64 78.55,-161.38 176.21,-242.11 292.98,-242.11l-3576.77 0c116.7,0 218.65,76.44 305.62,229.32 74.26,163.5 110.38,365.21 110.38,609.43z"/>
   <path class="fil0" d="M62849.8 9366.49l2318.7 0c178.39,0 365.21,65.84 560.6,193.22 91.27,57.33 184.71,133.77 280.27,225.11l-422.54 -1679.62 -8206.94 0 -416.14 1679.62c116.77,-116.77 250.54,-218.72 403.42,-305.77 155,-74.34 299.38,-112.56 437.44,-112.56l2318.7 0 0 7147.36c0,237.83 -40.33,437.43 -120.98,598.82 -80.73,161.39 -180.5,242.04 -301.56,242.04l3571.57 0c-112.56,0 -212.4,-84.94 -299.45,-254.83 -82.76,-161.39 -123.09,-356.71 -123.09,-586.03l0 -7147.36z"/>
  </g>
 </g>
</svg>
